HIERARCHY
ROOT root
{
	OFFSET 0.000000 0.000000 0.000000
	CHANNELS 6 Xposition Yposition Zposition Zrotation Yrotation Xrotation
	JOINT lhip
	{
		OFFSET 0.058581 -0.082280 -0.017664
		CHANNELS 3 Zrotation Yrotation Xrotation
		JOINT lknee
		{
			OFFSET 0.043451 -0.386469 0.008037
			CHANNELS 3 Zrotation Yrotation Xrotation
			JOINT lankle
			{
				OFFSET -0.014790 -0.426874 -0.037428
				CHANNELS 3 Zrotation Yrotation Xrotation
				JOINT ltoe
				{
					OFFSET 0.041054 -0.060286 0.122042
					CHANNELS 3 Zrotation Yrotation Xrotation
					End Site
					{
						OFFSET 0.000000 0.000000 0.000000
					}
				}
			}
		}
	}
	JOINT rhip
	{
		OFFSET -0.060310 -0.090513 -0.013543
		CHANNELS 3 Zrotation Yrotation Xrotation
		JOINT rknee
		{
			OFFSET -0.043257 -0.383688 -0.004843
			CHANNELS 3 Zrotation Yrotation Xrotation
			JOINT rankle
			{
				OFFSET 0.019056 -0.420046 -0.034562
				CHANNELS 3 Zrotation Yrotation Xrotation
				JOINT rtoe
				{
					OFFSET -0.034840 -0.062106 0.130323
					CHANNELS 3 Zrotation Yrotation Xrotation
					End Site
					{
						OFFSET 0.000000 0.000000 0.000000
					}
				}
			}
		}
	}
	JOINT lowerback
	{
		OFFSET 0.004439 0.124404 -0.038385
		CHANNELS 3 Zrotation Yrotation Xrotation
		JOINT upperback
		{
			OFFSET 0.004488 0.137956 0.026820
			CHANNELS 3 Zrotation Yrotation Xrotation
			JOINT chest
			{
				OFFSET -0.002265 0.056032 0.002855
				CHANNELS 3 Zrotation Yrotation Xrotation
				JOINT lowerneck
				{
					OFFSET -0.013390 0.211636 -0.033468
					CHANNELS 3 Zrotation Yrotation Xrotation
					JOINT upperneck
					{
						OFFSET 0.010113 0.088937 0.050410
						CHANNELS 3 Zrotation Yrotation Xrotation
						End Site
						{
							OFFSET 0.000000 0.000000 0.000000
						}
					}
				}
				JOINT lclavicle
				{
					OFFSET 0.071702 0.114000 -0.018898
					CHANNELS 3 Zrotation Yrotation Xrotation
					JOINT lshoulder
					{
						OFFSET 0.122921 0.045205 -0.019046
						CHANNELS 3 Zrotation Yrotation Xrotation
						JOINT lelbow
						{
							OFFSET 0.255332 -0.015649 -0.022946
							CHANNELS 3 Zrotation Yrotation Xrotation
							JOINT lwrist
							{
								OFFSET 0.265709 0.012698 -0.007375
								CHANNELS 3 Zrotation Yrotation Xrotation
								End Site
								{
									OFFSET 0.000000 0.000000 0.000000
								}
							}
						}
					}
				}
				JOINT rclavicle
				{
					OFFSET -0.082954 0.112472 -0.023707
					CHANNELS 3 Zrotation Yrotation Xrotation
					JOINT rshoulder
					{
						OFFSET -0.113228 0.046853 -0.008472
						CHANNELS 3 Zrotation Yrotation Xrotation
						JOINT relbow
						{
							OFFSET -0.260127 -0.014369 -0.031269
							CHANNELS 3 Zrotation Yrotation Xrotation
							JOINT rwrist
							{
								OFFSET -0.269108 0.006794 -0.006027
								CHANNELS 3 Zrotation Yrotation Xrotation
								End Site
								{
									OFFSET 0.000000 0.000000 0.000000
								}
							}
						}
					}
				}
			}
		}
	}
}
MOTION
Frames: 13
Frame Time: 0.033333
-1.964718 0.066784 0.837823 60.756187 2.678218 84.385006 24.447247 17.578764 -34.995426 -10.002389 21.790398 60.746367 1.506593 4.222901 -28.497583 0.000000 -0.000000 0.000000 -22.665269 -4.793060 17.866061 0.710472 0.942136 29.982495 4.818472 -6.578169 -45.355437 0.000000 -0.000000 0.000000 -1.457057 6.484815 11.949340 1.426018 -3.305194 0.146591 -0.302908 1.784558 -1.672933 0.315929 1.059038 -1.265439 3.896220 7.155466 18.441751 -22.629465 -1.294822 -2.011876 -45.038396 -12.568987 3.236466 140.826635 -88.070281 -117.389661 21.124054 -10.182689 -9.226154 22.284253 2.525882 2.463285 42.961691 1.679631 9.174036 156.392402 81.474626 179.890931 -4.656256 13.693155 -4.446509 
-1.964468 0.066594 0.837667 60.759821 2.676944 84.407798 24.495937 17.494981 -34.991922 -9.926488 21.899849 60.766523 1.539708 4.159396 -28.509386 0.000000 -0.000000 0.000000 -22.657108 -4.814010 17.848667 0.612723 0.848881 30.015201 4.745157 -6.478384 -45.333724 0.000000 -0.000000 0.000000 -1.458131 6.483540 11.944050 1.428155 -3.342226 0.137674 -0.281895 1.799849 -1.685734 0.323077 1.034609 -1.262035 3.868292 7.155766 18.447771 -22.584407 -1.368810 -1.968756 -45.075066 -12.534019 3.209361 140.129305 -88.026361 -116.748055 21.100481 -10.197819 -9.196358 22.273255 2.537538 2.480525 42.974724 1.652593 9.126990 156.338870 81.456762 179.815829 -4.651120 13.678965 -4.462230 
-1.964266 0.066454 0.837501 60.782250 2.676146 84.437951 24.555716 17.362613 -35.003448 -9.820251 22.039734 60.810572 1.593984 4.096984 -28.539959 0.000000 -0.000000 0.000000 -22.632407 -4.820956 17.825965 0.492102 0.704271 30.052973 4.644570 -6.378537 -45.315567 0.000000 -0.000000 0.000000 -1.479527 6.470072 11.922822 1.427745 -3.407650 0.120412 -0.262462 1.823556 -1.701585 0.348990 1.009638 -1.261182 3.846963 7.136822 18.482342 -22.512444 -1.472750 -1.912612 -45.099652 -12.499821 3.174722 138.853366 -87.960038 -115.556963 21.066808 -10.208590 -9.160882 22.271785 2.554718 2.502277 43.000406 1.616860 9.087378 156.277690 81.471616 179.723623 -4.685008 13.663281 -4.489119 
-1.963897 0.066056 0.837274 60.795942 2.657383 84.478984 24.644327 17.243438 -35.001465 -9.732586 22.223566 60.871021 1.663017 4.018585 -28.599264 0.000000 -0.000000 0.000000 -22.681989 -4.913673 17.831594 0.361446 0.591605 30.051377 4.531998 -6.169739 -45.295440 0.000000 -0.000000 0.000000 -1.501104 6.511725 11.777202 1.414982 -3.498686 0.296118 -0.281727 1.854202 -1.704716 0.394154 1.000322 -1.280835 3.814065 7.092421 18.442935 -22.458752 -1.623263 -1.883384 -45.029845 -12.549945 3.104144 137.789959 -87.924727 -114.554283 21.171916 -10.232376 -9.088406 22.338591 2.562467 2.483188 42.967634 1.627943 9.012722 155.860954 81.522805 179.310773 -4.716032 13.641522 -4.439852 
-1.963647 0.065869 0.837172 60.780779 2.653404 84.513294 24.666305 17.222742 -35.011751 -9.733918 22.242713 60.882613 1.690254 4.042181 -28.628297 0.000000 -0.000000 0.000000 -22.693535 -4.945248 17.795627 0.338656 0.582779 30.075659 4.521644 -6.154942 -45.303832 0.000000 -0.000000 0.000000 -1.504080 6.531754 11.732096 1.426844 -3.495051 0.345972 -0.278917 1.861179 -1.700625 0.390474 1.028879 -1.299788 3.770995 7.099849 18.407677 -22.442378 -1.604958 -1.938876 -45.083691 -12.600504 3.159746 137.397841 -87.973470 -114.198021 21.223377 -10.183885 -9.055119 22.332343 2.513961 2.471075 42.918841 1.640130 9.018114 155.678652 81.498483 179.094737 -4.691034 13.613218 -4.514789 
-1.963395 0.065677 0.837053 60.761752 2.606618 84.510039 24.670257 17.120862 -34.990722 -9.722273 22.284085 60.910359 1.664293 4.083027 -28.663393 0.000000 -0.000000 0.000000 -22.728526 -4.848567 17.792100 0.350204 0.458004 30.105118 4.509792 -6.190396 -45.300661 0.000000 -0.000000 0.000000 -1.517333 6.525625 11.734730 1.428843 -3.502328 0.455615 -0.299098 1.868998 -1.742972 0.382626 1.102566 -1.278933 3.712081 7.060343 18.381015 -22.457002 -1.640783 -1.930456 -45.078084 -12.588112 3.194958 135.347453 -87.900097 -112.140600 21.083079 -10.259764 -8.996127 22.357573 2.540413 2.508836 42.839097 1.663549 9.019760 155.797996 81.493837 179.240547 -4.648997 13.611897 -4.603215 
-1.963241 0.065439 0.836887 60.670942 2.594646 84.507373 24.685011 17.081199 -34.991170 -9.648849 22.261357 61.000985 1.616513 4.145156 -28.714435 0.000000 -0.000000 0.000000 -22.770069 -4.809637 17.740952 0.368472 0.422677 30.140144 4.478979 -6.250467 -45.313367 0.000000 -0.000000 0.000000 -1.462568 6.518481 11.820286 1.417379 -3.466709 0.436595 -0.326455 1.845699 -1.698442 0.340679 1.207704 -1.335439 3.598670 7.060499 18.376168 -22.520915 -1.582286 -1.956028 -44.988879 -12.567222 3.160298 134.847021 -87.839903 -111.538330 21.016672 -10.355468 -8.907375 22.435143 2.520261 2.487363 42.696786 1.775862 9.040801 155.385116 81.484802 178.854219 -4.746740 13.668152 -4.620587 
-1.963173 0.065153 0.836578 60.498297 2.623623 84.561556 24.754059 17.079029 -35.037250 -9.551185 22.243678 61.116310 1.584524 4.254338 -28.765305 0.000000 -0.000000 0.000000 -22.816308 -4.891672 17.602459 0.363533 0.562020 30.169832 4.434038 -6.219098 -45.358713 0.000000 -0.000000 0.000000 -1.386142 6.544888 11.842184 1.414837 -3.415362 0.509327 -0.351263 1.865707 -1.628587 0.280095 1.348634 -1.560868 3.477747 6.992651 18.357471 -22.589840 -1.451726 -2.049181 -44.950374 -12.585633 3.096687 134.565525 -87.804890 -111.322641 20.981679 -10.319290 -8.985232 22.593788 2.499928 2.565066 42.536825 1.964298 8.999071 155.913484 81.492422 179.379248 -4.869252 13.741173 -4.553288 
-1.962925 0.064670 0.836510 60.325427 2.643596 84.619433 24.816437 17.059801 -35.027521 -9.467655 22.252407 61.159647 1.565285 4.359148 -28.817271 0.000000 -0.000000 0.000000 -22.820865 -4.885335 17.443003 0.380476 0.609634 30.252372 4.324224 -6.232571 -45.376871 0.000000 -0.000000 0.000000 -1.368665 6.577837 11.876289 1.433777 -3.366854 0.604400 -0.347001 1.864095 -1.675884 0.222110 1.451028 -1.595916 3.386987 6.937809 18.328024 -22.603678 -1.401115 -2.042668 -44.969760 -12.514144 2.974472 131.419162 -87.777402 -108.157316 20.930320 -10.220643 -9.071105 22.668049 2.541385 2.632963 42.626982 2.052247 8.950014 156.682297 81.648904 -179.825937 -5.003142 13.699971 -4.621543 
-1.962447 0.063811 0.836533 60.151511 2.691820 84.715098 24.872501 17.072403 -35.108472 -9.315688 22.256150 61.279218 1.578857 4.552949 -28.784543 0.000000 -0.000000 0.000000 -22.769373 -4.868344 17.294039 0.428986 0.680510 30.281384 4.259876 -6.300335 -45.360466 0.000000 -0.000000 0.000000 -1.428412 6.570075 11.836066 1.500220 -3.370288 0.673898 -0.330553 1.874386 -1.664813 0.220729 1.558757 -1.567848 3.347870 6.941909 18.407828 -22.631681 -1.358285 -1.988223 -44.916177 -12.495830 2.850087 124.943204 -87.759006 -101.610529 20.935905 -10.117087 -9.011804 22.899663 2.577546 2.690358 42.707575 2.278590 8.952905 157.258734 81.934402 -179.284329 -5.194233 13.709474 -4.683175 
-1.961934 0.062941 0.836168 60.132678 2.805185 84.777275 24.951221 17.085822 -35.308538 -9.153903 22.203871 61.567610 1.460648 4.634290 -28.763536 0.000000 -0.000000 0.000000 -22.748247 -5.013456 17.330701 0.416312 0.656569 30.222341 4.348059 -6.026328 -45.360371 0.000000 -0.000000 0.000000 -1.416756 6.482508 12.080508 1.592379 -3.414288 0.305088 -0.283615 1.918663 -1.595112 0.032791 1.714228 -1.531816 3.247222 6.940412 18.550422 -22.559844 -1.268791 -1.980849 -44.802440 -12.427559 2.710271 125.193813 -87.734156 -101.770087 20.903891 -10.282617 -9.009284 22.911872 2.540999 2.660152 42.737384 2.606434 8.859318 155.362588 82.014669 178.686134 -5.535336 13.740053 -5.129197 
-1.961534 0.062555 0.835529 60.132504 3.053621 84.771419 25.140736 17.264489 -35.764496 -8.696294 22.304821 62.419365 0.913474 4.580691 -28.418785 0.000000 -0.000000 0.000000 -22.576644 -5.023698 17.380470 0.461682 0.622990 30.218588 4.447227 -5.955292 -45.380699 0.000000 -0.000000 0.000000 -1.233309 6.063470 12.854257 1.622031 -3.444663 -0.337354 -0.263064 1.976856 -1.536710 -0.313958 1.894822 -1.670833 2.978053 7.476767 18.300785 -22.659742 -1.078298 -1.971972 -43.761920 -11.868794 2.038594 135.712220 -87.152733 -111.467399 20.522740 -10.821841 -8.940850 22.703442 3.048914 2.741048 42.539106 3.892382 8.742600 150.513406 82.296124 173.244986 -5.743838 13.335144 -7.414906 
-1.961434 0.062778 0.834633 59.669571 3.532361 84.926725 25.713453 18.245453 -36.613108 -7.155704 23.925987 64.207502 -0.023535 4.830313 -27.402720 0.000000 -0.000000 0.000000 -22.169890 -4.898840 16.852128 0.494656 0.795240 30.462704 4.238773 -5.947431 -45.595023 0.000000 -0.000000 0.000000 -1.104598 5.796773 13.766662 1.620488 -3.211729 -0.639709 -0.147909 2.169999 -1.771386 -0.332355 2.268322 -2.476885 2.641722 7.930776 18.106842 -22.906772 -0.980792 -2.068058 -41.973539 -10.844989 0.857074 140.874403 -85.962155 -116.044467 20.492553 -11.997826 -9.165665 22.978362 4.473104 3.016098 41.512822 6.792061 8.512805 147.360830 82.771701 169.544229 -6.736592 13.453243 -8.096512 
